<?xml version="1.0" encoding="UTF-8"?>
<svg id="Calque_2" data-name="Calque 2" xmlns="http://www.w3.org/2000/svg" xmlns:xlink="http://www.w3.org/1999/xlink" viewBox="0 0 440.8 595.72">
  <defs>
    <style>
      .cls-1 {
        stroke-width: 6px;
      }

      .cls-1, .cls-2, .cls-3, .cls-4, .cls-5, .cls-6, .cls-7 {
        stroke: #021601;
      }

      .cls-1, .cls-2, .cls-4, .cls-5, .cls-6, .cls-7 {
        stroke-miterlimit: 10;
      }

      .cls-1, .cls-3, .cls-8, .cls-5 {
        fill: none;
      }

      .cls-2 {
        fill: #0b0c0c;
      }

      .cls-2, .cls-4, .cls-6 {
        stroke-width: 10px;
      }

      .cls-3 {
        stroke-miterlimit: 10;
        stroke-width: 10px;
      }

      .cls-9 {
        fill: #252824;
      }

      .cls-10 {
        fill: #464942;
      }

      .cls-11 {
        fill: url(#Dégradé_sans_nom_3-3);
      }

      .cls-4, .cls-7 {
        fill: #021601;
      }

      .cls-5 {
        stroke-width: 7px;
      }

      .cls-12 {
        fill: url(#Dégradé_sans_nom_3-2);
      }

      .cls-13 {
        fill: url(#Dégradé_sans_nom_4);
      }

      .cls-14 {
        fill: url(#Dégradé_sans_nom_3);
      }

      .cls-7 {
        stroke-width: 13px;
      }
    </style>
    <linearGradient id="Dégradé_sans_nom_3" data-name="Dégradé sans nom 3" x1="65.99" y1="192.26" x2="366.94" y2="192.26" gradientTransform="translate(0 -56.72)" gradientUnits="userSpaceOnUse">
      <stop offset="0" stop-color="#3c462d"/>
      <stop offset="1" stop-color="#011212"/>
    </linearGradient>
    <linearGradient id="Dégradé_sans_nom_3-2" data-name="Dégradé sans nom 3" x1="213.04" y1="279.29" x2="213.79" y2="236.43" xlink:href="#Dégradé_sans_nom_3"/>
    <linearGradient id="Dégradé_sans_nom_3-3" data-name="Dégradé sans nom 3" x1="330.2" y1="433.94" x2="98.83" y2="433.94" xlink:href="#Dégradé_sans_nom_3"/>
    <linearGradient id="Dégradé_sans_nom_4" data-name="Dégradé sans nom 4" x1="191.18" y1="434.36" x2="226.16" y2="254.38" gradientTransform="translate(0 -56.72)" gradientUnits="userSpaceOnUse">
      <stop offset="0" stop-color="#fffad6"/>
      <stop offset="1" stop-color="#93841a"/>
    </linearGradient>
  </defs>
  <g id="Calque_1-2" data-name="Calque 1">
    <g>
      <g id="Calque_5" data-name="Calque 5">
        <polygon class="cls-14" points="190.76 86.68 241.22 86.73 366.94 181.37 247.98 184.4 83.85 181.41 65.99 178.33 190.76 86.68"/>
        <polygon class="cls-12" points="86.93 220.37 239.69 220.37 342.99 220.37 342.99 181.98 83.85 181.41 86.93 220.37"/>
        <polygon class="cls-11" points="98.83 359.7 228.1 367.7 330.2 356.04 328.04 385.11 228.1 398.41 98.83 385.74 98.83 359.7"/>
        <polygon class="cls-13" points="86.93 220.37 239.69 220.37 342.99 220.37 330.2 356.04 228.1 367.7 98.83 359.7 86.93 220.37"/>
      </g>
      <g id="Calque_2-2" data-name="Calque 2">
        <circle class="cls-3" cx="210.71" cy="46.88" r="41.87" transform="translate(99.6 231.95) rotate(-71.56)"/>
        <circle class="cls-7" cx="210.69" cy="70.54" r="9.46"/>
        <path class="cls-1" d="M190.6,86.73L58.31,180.42c-.23.16-.12.52.16.53l189.09,3.44c.2,0,.35-.2.28-.39l-37.07-97.13c-.04-.11-.15-.19-.27-.19h-19.72c-.06,0-.12.02-.17.05h-.01Z"/>
        <path class="cls-1" d="M366.41,184.4h-118.43l-37.3-97.72,24.71-2.98,131.34,99.75c.4.31.19.95-.32.95h0Z"/>
        <polygon class="cls-1" points="83.85 184.39 100.94 384.38 232.11 398.41 241.22 184.28 83.85 184.39"/>
        <polygon class="cls-1" points="342.99 184.4 327.61 390.87 232.11 398.41 241.22 184.28 342.99 184.4"/>
        <path class="cls-2" d="M80.51,396.26l146.98,8.84.6-9.16-147.37-11.63c-2.97-.23-5.51,2.11-5.51,5.09v.62c0,3.32,2.59,6.07,5.3,6.23h0Z"/>
        <path class="cls-6" d="M347.19,393.62l-111,11.48-.45-8.31,111.29-14.09c2.25-.21,4.17,1.93,4.17,4.65v.57c0,3.03-1.96,5.54-4.01,5.69h0Z"/>
        <polygon class="cls-5" points="98.83 359.7 233.4 368.02 239.69 220.37 86.93 220.37 98.83 359.7"/>
        <line class="cls-1" x1="162.54" y1="220.37" x2="163.31" y2="368.02"/>
        <polygon class="cls-5" points="239.69 220.37 340.52 217.53 330.2 356.04 233.4 368.02 239.69 220.37"/>
        <line class="cls-1" x1="293.47" y1="220.37" x2="286.96" y2="361.39"/>
        <path class="cls-4" d="M435.31,450.79l-58.56,60.85c-.19.2-.42.35-.67.43l-63.94,22.1c-1.17.4-2.37-.54-2.25-1.77l1.2-12.61c.16-1.66-1.91-2.53-2.99-1.26l-23.83,28.08c-.12.14-.26.26-.42.36l-72.52,43.51c-.57.35-1.3.32-1.85-.06l-67.19-46.89c-.13-.09-.28-.17-.44-.22l-88.69-28.75c-.33-.11-.61-.31-.82-.58l-45.58-58.47c-.92-1.18.02-2.86,1.46-2.74l-2.15-.39c-.4-.08-.4-.64.01-.7l195.27-29.16s.06-.01.09,0l231.7,23.86c.4.04.44.6.05.7l-194.63,47.46.77.14c.24.04.48.03.71-.02l193.65-46.7c1.65-.4,2.81,1.6,1.62,2.83h0Z"/>
        <line class="cls-8" y1="451.95" x2="194.65" y2="419.71"/>
      </g>
      <g id="Calque_4" data-name="Calque 4">
        <path class="cls-10" d="M40.42,470.54l103.77,17.89,83.91,2.87-13.18,78.09-6.89-.78-70.04-56.72h-9.79c-1.47,0-2.71,1.11-2.87,2.57l-1.05,9.43c-.14,1.27-1.04,2.32-2.27,2.66l-2.51.69-58.44-26.79-24.14-26.95h0c0-1.86,1.68-3.27,3.51-2.96h-.01Z"/>
        <polygon class="cls-9" points="43.54 451.95 198 430.18 392.66 450.27 231.91 491.3 214.16 491.3 159.91 472.04 43.54 451.95"/>
      </g>
    </g>
  </g>
</svg>