<?xml version="1.0" encoding="UTF-8"?>
<svg id="Calque_2" data-name="Calque 2" xmlns="http://www.w3.org/2000/svg" viewBox="0 0 480.76 480.76">
  <defs>
    <style>
      .cls-1 {
        fill: #fff;
      }
    </style>
  </defs>
  <g id="Calque_2-2" data-name="Calque 2">
    <g>
      <path d="M480.76,240.38c0,132.76-107.62,240.38-240.38,240.38S0,373.14,0,240.38,107.62,0,240.38,0s240.38,107.62,240.38,240.38ZM125.74,71.16c-8.5,3.28-10.82,12.85-2.07,17.64,3.48,1.9,11.95,1.74,13.18,5.84-2.38,26.5-.52,55.66,12.74,79.13,6.29,11.14,18.06,25.67,26.88,35.06,9.3,9.91,30.52,24.1,30.56,38.45.03,11.59-24.33,28.51-32.56,37.45-22.59,24.54-36.36,51.62-38.49,85.39-.36,5.75,1.25,25.74-.14,28.82s-7.53,2.38-10.54,3.46c-10.98,3.91-9.09,16.23,2.18,17.26,19.29,1.77,44.05-.06,64.03,0,33.05.09,66.75-.54,100.03-.67,18.65-.07,39.34,2.29,57.82.66,5.47-.48,11.36-2.57,11.94-8.91,1.01-10.93-15.87-8.5-17.31-12.78-1.53-4.5,1.02-17.75.88-23.86-.78-32.94-13.69-59.55-34.98-83.9-5.78-6.61-34.43-32.09-35.74-37.18-1.44-5.55.13-10.68,3.33-15.16,8.47-11.85,22.78-23.79,32.36-35.58,22.23-27.35,34.69-51.52,35.03-87.84.05-5.49-2.11-15.58-.84-19.83,1.14-3.82,7.85-3.62,11.09-4.89,11.45-4.5,7.05-18.08-3.74-18.82l-225.62.26Z"/>
      <path class="cls-1" d="M125.74,71.16l225.62-.26c10.79.74,15.19,14.32,3.74,18.82-3.24,1.27-9.95,1.07-11.09,4.89-1.27,4.25.89,14.35.84,19.83-.34,36.32-12.8,60.49-35.03,87.84-9.58,11.79-23.88,23.72-32.36,35.58-3.2,4.48-4.77,9.61-3.33,15.16,1.32,5.09,29.96,30.56,35.74,37.18,21.29,24.35,34.2,50.96,34.98,83.9.15,6.11-2.4,19.35-.88,23.86,1.45,4.28,18.32,1.85,17.31,12.78-.58,6.33-6.47,8.42-11.94,8.91-18.48,1.63-39.17-.73-57.82-.66-33.28.13-66.98.76-100.03.67-19.98-.06-44.74,1.77-64.03,0-11.27-1.03-13.16-13.35-2.18-17.26,3.01-1.07,9.22-.52,10.54-3.46,1.39-3.08-.22-23.07.14-28.82,2.13-33.76,15.9-60.84,38.49-85.39,8.24-8.95,32.6-25.86,32.56-37.45-.04-14.35-21.26-28.54-30.56-38.45-8.81-9.39-20.59-23.92-26.88-35.06-13.26-23.48-15.12-52.63-12.74-79.13-1.23-4.09-9.7-3.94-13.18-5.84-8.75-4.79-6.43-14.36,2.07-17.64ZM158,398.63h163.84c.18-2.03-1.3-3.57-2.48-5.01-5.28-6.45-16.07-14.71-22.52-21.44-17.82-18.6-36.28-38.96-50.69-60.2,1.45-34.92-8.76-61.48,17.24-89.2,3.36-3.58,20.95-17.03,21.26-19.65-11.92-20.94-15.98-45.31-23.24-68.13l.6-3.01,7.71-1.28.49-6.58-1.05-1.23c-4.39-1.87-7.82,0-11.71.04-14,.14-28-.2-42-.05-3.52.4-3.07,5.11-1.59,7.59,2.17,2.71,9.35-.43,9.07,5.78l-20.51,64.5-.43,7.52c7.92,11.15,22.12,20.22,27.81,33.13,8.56,19.42,2.23,50.32,3.93,71.58-20.87,27.82-45.81,54.76-70.71,79.15-2.11,2.07-5.74,2.55-5.01,6.48Z"/>
      <path d="M158,398.63c-.73-3.93,2.9-4.41,5.01-6.48,24.9-24.39,49.84-51.33,70.71-79.15-1.7-21.26,4.63-52.16-3.93-71.58-5.69-12.91-19.88-21.98-27.81-33.13l.43-7.52,20.51-64.5c.27-6.21-6.91-3.07-9.07-5.78-1.48-2.49-1.93-7.2,1.59-7.59,14-.15,28,.19,42,.05,3.89-.04,7.32-1.91,11.71-.04l1.05,1.23-.49,6.58-7.71,1.28-.6,3.01c7.26,22.83,11.32,47.19,23.24,68.13-.32,2.62-17.9,16.07-21.26,19.65-26,27.71-15.8,54.27-17.24,89.2,14.42,21.24,32.88,41.6,50.69,60.2,6.45,6.73,17.24,14.99,22.52,21.44,1.18,1.44,2.66,2.98,2.48,5.01h-163.84ZM231.43,165.88c-2.02-.04-13.78,33.58-12.37,38.27.9,2.73,24.12,10.09,26.28,9.57,3.51-.86-1.03-14.97-1.91-17.89-1.03-3.43-10.38-29.91-12-29.94Z"/>
      <path class="cls-1" d="M231.43,165.88c1.62.03,10.97,26.51,12,29.94.88,2.92,5.42,17.03,1.91,17.89-2.15.53-25.38-6.84-26.28-9.57-1.41-4.68,10.35-38.31,12.37-38.27Z"/>
    </g>
  </g>
</svg>